# xmcd CD database file
#
# Track frame offsets:
#	150
#	30677
#	49034
#	72141
#	94162
#	114109
#	128882
#	147845
#	174194
#	206259
#	233536
#	252635
#	272143
#	289604
#	314646
#	335771
#
# Disc length: 4774 seconds
#
# Revision: 0
# Processed by: cddbd v1.5.2PL0 Copyright (c) Steve Scherf et al.
# Submitted via: CDex 1.51
#
DISCID=e612a410
DTITLE=Joe Bataan - The Anthology Disc 2
DYEAR=2005
DGENRE=Jazz
TTITLE0=Mestizo
TTITLE1=Rap-O, Clap-O
TTITLE2=Sadie (She Smokes)
TTITLE3=Latin Lover
TTITLE4=Rock Me All Night Long
TTITLE5=I See Your Hiney
TTITLE6=Rap-O, Dance-O
TTITLE7=Always And Forever
TTITLE8=Forever
TTITLE9=Mestizo 2
TTITLE10=He Don't Really Love You
TTITLE11=Super Girl
TTITLE12=Ling Ting Chong
TTITLE13=Break Down - Dead Ahead
TTITLE14=When We Get Married
TTITLE15=You, My Love
EXTD=YEAR: 2005
EXTT0=
EXTT1=
EXTT2=
EXTT3=
EXTT4=
EXTT5=
EXTT6=
EXTT7=
EXTT8=
EXTT9=
EXTT10=
EXTT11=
EXTT12=
EXTT13=
EXTT14=
EXTT15=
PLAYORDER=
